<svg viewBox="0 0 24 24" className="w-full h-full" xmlns="http://www.w3.org/2000/svg">
  <path d="M12 24C18.6274 24 24 18.6274 24 12C24 5.37258 18.6274 0 12 0C5.37258 0 0 5.37258 0 12C0 18.6274 5.37258 24 12 24Z" fill="#2AABEE"/>
  <path fillRule="evenodd" clipRule="evenodd" d="M5.42534 11.8711L16.2574 7.69555C16.7606 7.50733 17.2025 7.8176 17.0213 8.43853L14.9079 18.3891C14.756 19.0682 14.3496 19.2366 13.7845 18.9197L10.6783 16.6305L9.1783 18.0754C9.0122 18.2415 8.87413 18.3796 8.54256 18.3796L8.76633 15.2015L14.5458 9.98188C14.7974 9.75788 14.491 9.63412 14.1565 9.85788L7.01426 14.3516L3.93514 13.3888C3.2657 13.1798 3.2519 12.7188 4.0747 12.398L5.42534 11.8711Z" fill="white"/>
</svg>
